<svg xmlns="http://www.w3.org/2000/svg" viewBox="0 0 160 160"><style>@keyframes bob{0%,100%{transform:translateY(0)}50%{transform:translateY(-5px)}}@keyframes bow{0%,100%{transform:translateX(0)}50%{transform:translateX(5px)}}#h{animation:bob .8s infinite ease-in-out;transform-origin:80px 128px}#b{animation:bow .8s infinite ease-in-out;transform-origin:122px 88px}.s{stroke:#293326;stroke-width:5;stroke-linecap:round;stroke-linejoin:round}</style><rect width="160" height="160" rx="18" fill="#f2f8ed"/><ellipse cx="80" cy="134" rx="42" ry="9" fill="#ccd9c2"/><g id="h"><circle cx="80" cy="49" r="22" fill="#ffdaaa" class="s"/><path d="M57 42c11-20 35-22 49 0-13-4-30-4-49 0z" fill="#a86b30" class="s"/><path d="M58 123l12-55h23l11 55z" fill="#6f9a45" class="s"/><path d="M65 79l-22 15M96 79l22 7M70 123l-8 22M94 123l9 22" class="s"/><g id="b"><path d="M130 55c-22 22-22 46 0 68" fill="none" stroke="#8a5a30" stroke-width="7" stroke-linecap="round"/><path d="M130 55v68" stroke="#d8eadf" stroke-width="2"/><path d="M105 89h35" stroke="#d8eadf" stroke-width="4"/></g></g><text x="80" y="151" text-anchor="middle" font-size="15" font-family="sans-serif" fill="#283525">アーチャー</text></svg>