<svg xmlns="http://www.w3.org/2000/svg" viewBox="0 0 160 160"><style>@keyframes bob{0%,100%{transform:translateY(0)}50%{transform:translateY(-4px)}}@keyframes flash{0%,80%,100%{opacity:0;transform:scale(.4)}85%{opacity:1;transform:scale(1.1)}}#h{animation:bob .72s infinite ease-in-out;transform-origin:80px 128px}#f{animation:flash .72s infinite ease-in-out;transform-origin:137px 86px}.s{stroke:#263037;stroke-width:5;stroke-linecap:round;stroke-linejoin:round}</style><rect width="160" height="160" rx="18" fill="#eef6f7"/><ellipse cx="80" cy="134" rx="42" ry="9" fill="#cbdadb"/><g id="h"><circle cx="80" cy="49" r="22" fill="#ffd7a6" class="s"/><path d="M55 44h50l-7-15H63z" fill="#344a5a" class="s"/><path d="M58 123l12-55h23l11 55z" fill="#4e6978" class="s"/><path d="M65 78l-23 17M96 78l22 9M70 123l-8 22M94 123l9 22" class="s"/><path d="M108 87h30" stroke="#3a434a" stroke-width="11" stroke-linecap="round"/><path d="M104 94l15-15" stroke="#3a434a" stroke-width="8" stroke-linecap="round"/><path id="f" d="M139 86l14-8-4 15 10 11-16-1-9 12 1-16-13-9z" fill="#ffd45f"/></g><text x="80" y="151" text-anchor="middle" font-size="16" font-family="sans-serif" fill="#263037">ガンナー</text></svg>