<svg xmlns="http://www.w3.org/2000/svg" viewBox="0 0 160 160"><style>@keyframes bob{0%,100%{transform:translateY(0)}50%{transform:translateY(-4px)}}@keyframes guard{0%,100%{transform:rotate(4deg)}50%{transform:rotate(-5deg)}}#h{animation:bob .9s infinite ease-in-out;transform-origin:80px 128px}#shield{animation:guard .9s infinite ease-in-out;transform-origin:48px 91px}.s{stroke:#273238;stroke-width:5;stroke-linecap:round;stroke-linejoin:round}</style><rect width="160" height="160" rx="18" fill="#eef4fb"/><ellipse cx="80" cy="134" rx="43" ry="9" fill="#cbd5df"/><g id="h"><circle cx="80" cy="48" r="23" fill="#ffe0b4" class="s"/><path d="M55 49h50v-7c-4-18-44-18-50 0z" fill="#b9c4cc" class="s"/><path d="M58 123l10-55h25l11 55z" fill="#62758a" class="s"/><path d="M96 76l26 18M69 123l-7 22M94 123l8 22" class="s"/><g id="shield"><path d="M42 75l24 8v24c-4 10-12 18-24 23-12-5-20-13-24-23V83z" fill="#d7dde5" class="s"/><path d="M42 84v35" stroke="#7c8fa3" stroke-width="4"/></g><path d="M121 92l18-38" stroke="#d7e4ed" stroke-width="6" stroke-linecap="round"/></g><text x="80" y="151" text-anchor="middle" font-size="16" font-family="sans-serif" fill="#25323a">騎士</text></svg>