<svg xmlns="http://www.w3.org/2000/svg" viewBox="0 0 160 160"><style>@keyframes bob{0%,100%{transform:translateY(0)}50%{transform:translateY(-6px)}}@keyframes star{0%,100%{opacity:.25;transform:scale(.8) rotate(0)}50%{opacity:1;transform:scale(1.2) rotate(25deg)}}#h{animation:bob .9s infinite ease-in-out;transform-origin:80px 128px}.spark{animation:star .9s infinite ease-in-out;transform-origin:center}.s{stroke:#34243b;stroke-width:5;stroke-linecap:round;stroke-linejoin:round}</style><rect width="160" height="160" rx="18" fill="#fbf0fa"/><ellipse cx="80" cy="134" rx="42" ry="9" fill="#e1cfe0"/><g id="h"><circle cx="80" cy="52" r="21" fill="#ffddb1" class="s"/><path d="M51 49l33-42 25 44z" fill="#5b2b74" class="s"/><path d="M57 124l11-57h24l12 57z" fill="#813a91" class="s"/><path d="M66 79l-24 16M96 79l25 7M70 124l-8 21M94 124l9 21" class="s"/><path d="M119 88l19-39" stroke="#6d4626" stroke-width="7" stroke-linecap="round"/><path class="spark" d="M126 45l5 10 10 4-10 5-5 10-5-10-10-5 10-4z" fill="#ffd45f"/></g><text x="80" y="151" text-anchor="middle" font-size="16" font-family="sans-serif" fill="#34243b">ウィッチ</text></svg>